<svg width="24" height="24" viewBox="0 0 24 24" fill="none" xmlns="http://www.w3.org/2000/svg">
<path fill-rule="evenodd" clip-rule="evenodd" d="M16.7071 20.707L15.2929 19.2928L17.5858 16.9999L12 16.9999C10.3432 16.9999 9.00001 15.6568 9.00001 13.9999C9.00001 13.4476 9.44772 12.9999 10 12.9999C10.5523 12.9999 11 13.4476 11 13.9999C11 14.5522 11.4477 14.9999 12 14.9999L17.5858 14.9999L15.2929 12.707L16.7071 11.2928L21.4142 15.9999L16.7071 20.707Z" fill="#5C5F64"/>
<path fill-rule="evenodd" clip-rule="evenodd" d="M7.29289 12.707L8.7071 11.2928L6.41421 8.99992L12 8.99992C12.5523 8.99992 13 9.44764 13 9.99992C13 10.5522 13.4477 10.9999 14 10.9999C14.5523 10.9999 15 10.5522 15 9.99992C15 8.34307 13.6569 6.99992 12 6.99992L6.41421 6.99992L8.7071 4.70703L7.29289 3.29281L2.58578 7.99992L7.29289 12.707Z" fill="#5C5F64"/>
</svg>
